<?xml version="1.0" encoding="UTF-8"?>
<svg id="_레이어_2" data-name="레이어 2" xmlns="http://www.w3.org/2000/svg" viewBox="0 0 1117.38 344.16">
  <g id="_레이어_1-2" data-name="레이어 1">
    <g>
      <path d="m299.48,143.55c-11.66,8.36-30.69,16.61-49.83,16.61-40.26,0-70.51-36.63-70.51-79.42S209.71,0,249.76,0c11,0,30.25,2.86,44.11,9.02l-6.71,19.58c-10.12-8.14-34.21-25.19-40.48-26.07-30.47,1.87-44.77,26.84-44.77,66.22,0,50.27,23.43,85.8,58.52,85.8,6.16,0,14.08-1.1,16.5-2.53v-58.41h22.55v49.94Z"/>
      <path d="m325.33,3.08h86.02v3.63c-5.61-.22-38.5-1.1-44-1.1h-19.47v71.28h13.2c5.28,0,37.62-.33,44-.55v3.63c-6.38-.22-38.72-.55-44-.55h-13.2v75.13h20.24c5.5,0,38.5-.88,44-1.1v3.63h-86.79V3.08Z"/>
      <path d="m420.69,3.08h107.69v3.63c-5.39-.11-37.84-1.1-42.13-1.1v151.47h-22.55V5.61h-.77c-3.08,0-36.74.99-42.24,1.1v-3.63Z"/>
      <path d="m583.39,3.08h107.69v3.63c-5.39-.11-37.84-1.1-42.13-1.1v151.47h-22.55V5.61h-.77c-3.08,0-36.74.99-42.24,1.1v-3.63Z"/>
      <path d="m707.9,3.08h22.55v73.81h68.75V3.08h22.55v154h-22.55v-77.66h-68.75v77.66h-22.55V3.08Z"/>
      <path d="m852.12,3.08h86.02v3.63c-5.61-.22-38.5-1.1-44-1.1h-19.47v71.28h13.2c5.28,0,37.62-.33,44-.55v3.63c-6.38-.22-38.72-.55-44-.55h-13.2v75.13h20.24c5.5,0,38.5-.88,44-1.1v3.63h-86.79V3.08Z"/>
      <path d="m0,187.08h22.55v73.81h68.75v-73.81h22.55v154h-22.55v-77.66H22.55v77.66H0v-154Z"/>
      <path d="m206.69,292.35h-56.98c-8.14,23.98-14.3,43.67-15.62,48.73h-4.18l53.79-154h9.79l53.9,154h-23.87l-16.83-48.73Zm-.88-2.53l-27.5-79.53-23.21,66.66-4.51,12.87h55.22Z"/>
      <path d="m366.3,285.64c0,49.83-29.59,58.52-51.48,58.52-30.8,0-55.66-15.84-55.66-53.57v-103.51h22.44v100.1c0,32.89,10.12,53.02,38.72,53.02,23.54,0,43.45-14.19,43.45-54.56v-35.97c0-16.5-.99-55.66-1.21-62.59h3.74v98.56Z"/>
      <path d="m377.3,187.08h107.69v3.63c-5.39-.11-37.84-1.1-42.13-1.1v151.47h-22.55v-151.47h-.77c-3.08,0-36.74.99-42.24,1.1v-3.63Z"/>
      <path d="m501.82,187.08h86.02v3.63c-5.61-.22-38.5-1.1-44-1.1h-19.47v71.28h13.2c5.28,0,37.62-.33,44-.55v3.63c-6.38-.22-38.72-.55-44-.55h-13.2v75.13h20.24c5.5,0,38.5-.88,44-1.1v3.63h-86.79v-154Z"/>
      <path d="m601.59,289.82h56.21v2.53h-56.21v-2.53Z"/>
      <path d="m679.03,187.08h44.33c44,0,55.44,22.88,55.44,40.48,0,23.1-17.6,35.2-32.12,40.04l39.93,73.48h-25.52l-36.96-70.4c-8.69-.55-17.05-1.43-22.55-2.2v72.6h-22.55v-154Zm22.55,79.09c6.49.55,14.85,1.1,21.78,1.1,3.08,0,5.94-.11,8.14-.44,9.02-3.3,23.98-13.53,23.98-38.39,0-36.08-30.8-38.83-42.9-38.83h-11v76.56Z"/>
      <path d="m803.55,187.08h22.55v154h-22.55v-154Z"/>
      <path d="m958.54,285.64c0,49.83-29.59,58.52-51.48,58.52-30.8,0-55.66-15.84-55.66-53.57v-103.51h22.44v100.1c0,32.89,10.12,53.02,38.72,53.02,23.54,0,43.45-14.19,43.45-54.56v-35.97c0-16.5-.99-55.66-1.21-62.59h3.74v98.56Z"/>
      <path d="m981.86,226.46v50.82c0,17.71.99,60.5,1.1,63.8h-3.63v-154h9.79l60.72,134.09,57.75-134.09h9.79v154h-22.44v-118.03l-50.82,118.03h-9.79l-52.47-114.62Z"/>
    </g>
  </g>
</svg>