<?xml version="1.0" encoding="UTF-8"?>
<svg id="_레이어_2" data-name="레이어 2" xmlns="http://www.w3.org/2000/svg" viewBox="0 0 1891.91 411.41">
  <defs>
    <style>
      .cls-1 {
        fill: #fff;
      }
    </style>
  </defs>
  <g id="_레이어_1-2" data-name="레이어 1">
    <g>
      <g>
        <path class="cls-1" d="m0,0h38.64v162.05h159.87V0h38.64v338.1h-38.64v-170.5H38.64v170.5H0V0Z"/>
        <path class="cls-1" d="m407.89,319.02c-13.04,8.69-39.12,23.91-64.48,23.91-33.57,0-68.83-26.56-68.83-66.17s33.09-62.55,73.66-62.55c16.42,0,33.57,3.86,58.68,13.28v-39.61c0-24.15,0-69.55-55.55-69.55-24.63,0-41.05,8.94-58.68,21.25l-4.35-6.76c15.46-9.66,41.78-22.22,79.94-22.22,75.35,0,75.35,48.78,75.35,70.28v157.22h-30.43l-5.31-19.08Zm-.97-85.73c-13.52-5.07-36.95-9.9-53.37-9.9-21.01,3.38-42.75,18.84-42.75,52.65,0,30.19,17.39,54.1,50.23,54.1,20.29,0,35.02-8.94,45.89-17.15v-79.7Z"/>
        <path class="cls-1" d="m621.38,314.68c-14.25,13.04-42.02,28.26-72.69,28.26-48.78,0-62.55-37.67-62.55-71.24V115.44l36.71-2.42v166.15c0,24.63,6.28,52.65,42.75,52.65,21.74,0,40.33-10.38,55.06-23.91V115.44l36.71-2.42v225.08h-29.7l-6.28-23.43Z"/>
        <path class="cls-1" d="m804.92,123.41c-12.32-.72-40.81-1.69-59.89-2.17v186.2c0,16.42,4.83,28.26,22.94,28.26,13.28,0,24.88-6.28,35.02-16.9l4.59,6.76c-11.83,8.69-28.26,17.39-49.99,17.39-39.36,0-49.02-28.26-49.02-54.82V120.99h-27.77v-5.55h27.77v-37.19l36.47-30.91v68.1h59.89v7.97Z"/>
        <path class="cls-1" d="m1001.98,296.8c-17.15,29.46-50.71,46.13-84.28,46.13-60.13,0-104.09-54.82-104.09-115.68s47.33-116.64,106.02-116.64c62.55,0,79.7,52.16,79.7,88.15,0,3.14,0,6.04-.24,8.69h-147.8v3.14c0,62.55,30.67,121.96,83.32,121.96,19.08,0,43.71-7.49,60.62-39.61l6.76,3.86Zm-42.02-94.91c1.45-42.99-19.8-78.73-48.3-85.73-31.88,0-57.72,32.36-60.13,85.73h108.43Z"/>
        <path class="cls-1" d="m1020.1,225.56h118.33v5.55h-118.33v-5.55Z"/>
        <path class="cls-1" d="m1172.24,115.44l27.05-2.42,9.18,38.64c14.49-19.32,35.74-36.71,75.59-41.06l-5.31,35.26c-35.74,0-54.58,3.86-69.79,11.11v181.13h-36.71V115.44Z"/>
        <path class="cls-1" d="m1326.56,22.22c11.35,0,21.74,7.97,21.74,21.74s-10.38,21.73-21.74,21.73-21.74-7.97-21.74-21.73,10.14-21.74,21.74-21.74Zm-18.35,93.22l36.71-2.42v225.08h-36.71V115.44Z"/>
        <path class="cls-1" d="m1525.56,314.68c-14.25,13.04-42.02,28.26-72.69,28.26-48.78,0-62.55-37.67-62.55-71.24V115.44l36.71-2.42v166.15c0,24.63,6.28,52.65,42.75,52.65,21.73,0,40.33-10.38,55.06-23.91V115.44l36.71-2.42v225.08h-29.71l-6.28-23.43Z"/>
        <path class="cls-1" d="m1855.2,175.09c0-18.35,0-50.96-38.64-50.96-24.15,0-38.64,12.56-48.78,27.53,1.93,8.94,1.93,18.11,1.93,25.36v161.08h-36.71v-163.01c0-18.35,0-50.96-38.64-50.96-23.43,0-37.67,11.83-47.82,26.08v187.89h-36.71V115.44l27.53-2.42,8.21,29.46c13.04-16.18,36.95-31.88,64.72-31.88,35.74,0,49.99,16.18,55.79,34.05,12.56-16.9,37.43-34.05,66.41-34.05,59.41,0,59.41,46.13,59.41,71.24v156.25h-36.71v-163.01Z"/>
      </g>
      <g>
        <path class="cls-1" d="m1197.04,398.89c0,8.19-4.69,12.51-12.79,12.51s-13.33-3.87-13.33-12.51v-20.75h4.32v20.75c0,5.73,3.28,8.87,9.01,8.87s8.46-3.14,8.46-8.87v-20.75h4.32v20.75Z"/>
        <path class="cls-1" d="m1222.74,387.65c-.5-4.64-3.59-6.64-8.05-6.64-3.64,0-7.28,1.32-7.28,5.55,0,4,5.19,4.6,10.42,5.78,5.19,1.18,10.37,3,10.37,9.37,0,6.92-6.78,9.69-12.7,9.69-7.28,0-13.42-3.55-13.42-11.47h4.1c0,5.46,4.55,7.83,9.46,7.83,3.91,0,8.24-1.23,8.24-5.92s-5.19-5.23-10.37-6.37c-5.19-1.14-10.42-2.64-10.42-8.6,0-6.6,5.87-9.51,11.79-9.51,6.64,0,11.69,3.14,11.97,10.28h-4.1Z"/>
        <path class="cls-1" d="m1233.43,378.14h22.43v3.64h-18.11v10.33h16.88v3.64h-16.88v11.24h18.25v3.64h-22.57v-32.49Z"/>
        <path class="cls-1" d="m1261.24,378.14h15.29c6.1,0,9.87,3.32,9.87,8.51,0,3.91-1.73,7.14-5.64,8.24v.09c3.78.73,4.55,3.5,4.87,6.69.27,3.19.09,6.73,1.91,8.96h-4.82c-1.23-1.32-.55-4.82-1.18-8.01-.46-3.19-1.23-5.87-5.41-5.87h-10.56v13.88h-4.32v-32.49Zm13.33,14.97c4.05,0,7.51-1.05,7.51-5.78,0-3.19-1.73-5.55-5.78-5.55h-10.74v11.33h9.01Z"/>
        <path class="cls-1" d="m1327.89,387.93c-.91-4.6-4.6-6.92-9.1-6.92-7.74,0-11.01,6.37-11.01,13.15,0,7.42,3.28,13.6,11.06,13.6,5.69,0,8.96-4,9.37-9.37h4.32c-.82,8.1-5.87,13.01-14.06,13.01-10.1,0-15.02-7.46-15.02-16.93s5.37-17.11,15.38-17.11c6.78,0,12.38,3.64,13.38,10.56h-4.32Z"/>
        <path class="cls-1" d="m1337.9,378.14h15.29c6.1,0,9.87,3.32,9.87,8.51,0,3.91-1.73,7.14-5.64,8.24v.09c3.78.73,4.55,3.5,4.87,6.69.27,3.19.09,6.73,1.91,8.96h-4.82c-1.23-1.32-.55-4.82-1.18-8.01-.46-3.19-1.23-5.87-5.41-5.87h-10.56v13.88h-4.32v-32.49Zm13.33,14.97c4.05,0,7.51-1.05,7.51-5.78,0-3.19-1.73-5.55-5.78-5.55h-10.74v11.33h9.01Z"/>
        <path class="cls-1" d="m1369.07,378.14h22.43v3.64h-18.11v10.33h16.88v3.64h-16.88v11.24h18.25v3.64h-22.57v-32.49Z"/>
        <path class="cls-1" d="m1405.7,378.14h4.78l12.7,32.49h-4.78l-3.55-9.78h-13.74l-3.64,9.78h-4.46l12.7-32.49Zm-3.23,19.07h11.01l-5.41-15.15h-.09l-5.5,15.15Z"/>
        <path class="cls-1" d="m1433.73,381.79h-10.83v-3.64h25.98v3.64h-10.83v28.85h-4.32v-28.85Z"/>
        <path class="cls-1" d="m1452.65,378.14h4.32v32.49h-4.32v-32.49Z"/>
        <path class="cls-1" d="m1477.04,410.63h-4.91l-11.47-32.49h4.69l9.28,28.17h.09l9.37-28.17h4.5l-11.56,32.49Z"/>
        <path class="cls-1" d="m1492.06,378.14h22.43v3.64h-18.11v10.33h16.88v3.64h-16.88v11.24h18.25v3.64h-22.57v-32.49Z"/>
        <path class="cls-1" d="m1532.6,378.14h5.92l10.24,27.3,10.28-27.3h5.92v32.49h-4.09v-27.03h-.09l-10.15,27.03h-3.69l-10.15-27.03h-.09v27.03h-4.1v-32.49Z"/>
        <path class="cls-1" d="m1572.32,378.14h4.32v32.49h-4.32v-32.49Z"/>
        <path class="cls-1" d="m1606.76,387.93c-.91-4.6-4.6-6.92-9.1-6.92-7.74,0-11.01,6.37-11.01,13.15,0,7.42,3.28,13.6,11.06,13.6,5.69,0,8.96-4,9.37-9.37h4.32c-.82,8.1-5.87,13.01-14.06,13.01-10.1,0-15.02-7.46-15.02-16.93s5.37-17.11,15.38-17.11c6.78,0,12.38,3.64,13.38,10.56h-4.32Z"/>
        <path class="cls-1" d="m1616.77,378.14h22.43v3.64h-18.11v10.33h16.88v3.64h-16.88v11.24h18.25v3.64h-22.57v-32.49Z"/>
        <path class="cls-1" d="m1657.22,378.14h14.24c6.46,0,9.96,3.59,9.96,9.6s-3.5,9.65-9.96,9.6h-9.92v13.29h-4.32v-32.49Zm4.32,15.56h8.46c4.87.05,7.1-2.09,7.1-5.96s-2.23-5.96-7.1-5.96h-8.46v11.92Z"/>
        <path class="cls-1" d="m1686.71,378.14h4.32v28.85h17.2v3.64h-21.52v-32.49Z"/>
        <path class="cls-1" d="m1720.83,378.14h4.78l12.7,32.49h-4.78l-3.55-9.78h-13.74l-3.64,9.78h-4.46l12.7-32.49Zm-3.23,19.07h11.01l-5.41-15.15h-.09l-5.5,15.15Z"/>
        <path class="cls-1" d="m1748.86,381.79h-10.83v-3.64h25.98v3.64h-10.83v28.85h-4.32v-28.85Z"/>
        <path class="cls-1" d="m1767.6,378.14h21.34v3.64h-17.02v10.33h14.92v3.64h-14.92v14.88h-4.32v-32.49Z"/>
        <path class="cls-1" d="m1807.46,377.37c10.33,0,15.56,8.19,15.56,17.02s-5.23,17.02-15.56,17.02-15.56-8.19-15.56-17.02,5.23-17.02,15.56-17.02Zm0,30.4c7.92,0,11.24-6.83,11.24-13.38s-3.32-13.38-11.24-13.38-11.24,6.83-11.24,13.38,3.32,13.38,11.24,13.38Z"/>
        <path class="cls-1" d="m1828.3,378.14h15.29c6.1,0,9.87,3.32,9.87,8.51,0,3.91-1.73,7.14-5.64,8.24v.09c3.78.73,4.55,3.5,4.87,6.69.27,3.19.09,6.73,1.91,8.96h-4.82c-1.23-1.32-.55-4.82-1.18-8.01-.46-3.19-1.23-5.87-5.42-5.87h-10.56v13.88h-4.32v-32.49Zm13.33,14.97c4.05,0,7.51-1.05,7.51-5.78,0-3.19-1.73-5.55-5.78-5.55h-10.74v11.33h9.01Z"/>
        <path class="cls-1" d="m1859.56,378.14h5.92l10.24,27.3,10.28-27.3h5.92v32.49h-4.1v-27.03h-.09l-10.15,27.03h-3.69l-10.15-27.03h-.09v27.03h-4.09v-32.49Z"/>
      </g>
    </g>
  </g>
</svg>